<?xml version="1.0" encoding="utf-8"?>
<svg version="1.1" id="uuid-aa34a8f6-cf16-4e92-bb04-fcfbc8a05943"
	xmlns="http://www.w3.org/2000/svg" xmlns:xlink="http://www.w3.org/1999/xlink" x="0px" y="0px"
	viewBox="0 0 432 141.5"
	fill="url(#lgrad) var(--orange1)" xml:space="preserve">
	<defs>
		<linearGradient id="lgrad" x1="50%" y1="0%" x2="50%" y2="100%">
			<stop offset="0%" style="stop-color:var(--logo1);stop-opacity:1.00" />
			<stop offset="30%" style="stop-color:var(--logo2);stop-opacity:1.00" />
			<stop offset="100%" style="stop-color:var(--logo3);stop-opacity:1.00" />
		</linearGradient>
	</defs>
	<g id="uuid-63640b1d-9d54-42bd-9fe1-9d69cd064248">
		<path d="M100.8,61h38.5c5.5,0.1,10.2-0.3,14.1-1.1c3.9-0.8,7-2.4,9.5-4.9c2.5-2.5,3.7-6.1,3.7-10.9c0-1.5-0.4-3.1-1.1-4.6
	c-0.7-1.6-1.7-3-3-4.2c-1.3-1.3-2.9-2.3-4.8-3.3c-1.9-0.9-3.9-1.5-6.2-1.8V30c4.5-1.5,7.8-3.4,9.8-5.7c2-2.3,2.8-5.5,2.6-9.5
	c-0.7-5.3-2.8-9.1-6.3-11.3c-3.5-2.3-8.6-3.4-15.2-3.5H88.1v18.2h12.7V61z M121.8,14.8h14.7c0.6,0,1.5,0.3,2.4,1s1.5,1.8,1.6,3.5
	c-0.1,1.4-0.5,2.6-1.4,3.4c-0.9,0.9-1.8,1.3-2.6,1.3h-14.8V14.8z M121.8,37.4h13.6c2.8,0,5,0.5,6.6,1.5c1.6,1,2.3,2.4,2.1,4.2
	c0,1.6-0.9,3-2.6,4.1c-1.7,1.1-3.8,1.6-6.1,1.5h-13.6V37.4z"/>
		<polygon points="222.5,42.8 189.4,42.8 189.4,0 169.6,0 169.6,61 222.5,61 "/>
<path d="M231.9,56.1c2.9,2,6.3,3.5,10.1,4.5c3.9,0.9,7.7,1.5,11.4,1.5c4.5-0.1,8.6-0.7,12.3-1.9s6.7-2.7,9.2-4.7
	c2.4-2,4.5-4.6,6-7.6c1.6-3,2.4-7.1,2.5-12.1V0h-19.9v36.1c0.1,4-0.8,6.8-2.8,8.5c-2,1.7-4.5,2.6-7.5,2.6c-3.7-0.1-6.5-1-8.2-2.6
	c-1.7-1.6-2.5-4.5-2.4-8.6V0h-19.9v35.8c0,5.1,0.8,9.3,2.3,12.5C226.8,51.5,229,54.1,231.9,56.1z"/>
<polygon points="343.9,42.8 306.3,42.8 306.3,35.8 327.3,35.8 327.3,25.2 306.3,25.2 306.3,18.2 338.7,18.2 338.7,0 286.4,0
	286.4,61 343.9,61 "/>
<path d="M179.3,117.5c4.7-1.1,8.4-2.7,10.9-4.6c2.5-2,4.3-4.4,5.3-7.4c1-2.9,1-7.1-0.2-12.5c-1.5-3.6-3.8-6.5-6.9-8.6
	c-3.2-2.1-7.2-3.4-12.1-3.9h-39.7V139L117,80.5H86.7l-18.4,55.9V80.5H48.5v21h-16v-21H0v18.2h12.7v42.8h19.9v-22h16v22h18.2h1.7
	c5.1,0,20.2,0,20.2,0l3.8-11h18.1l3.8,11h22.2h0.8h21.2v-20.2l19.4,20.2h24.1v-18.2h-18.3L179.3,117.5z M93.2,118.2L102,94l8.1,24.2
	H93.2z M176.7,106.1c-1,0.6-1.8,0.9-2.7,0.9h-15.4V95.7H174c0.7,0,1.5,0.4,2.5,1.1c1,0.7,1.6,2.3,1.7,4.6
	C178.2,103.9,177.7,105.5,176.7,106.1z"/>
<path d="M373.4,80.5h-30.3c-7.8,0-12.4,3.8-13.9,11.3c-1.5,7.5,2.7,15.8,12.5,24.8c5.9,4.7,4.9,6.9-3,6.7h-10.3h-2.5h-35.1v-7h21
	v-10.6h-21v-7h32.5V80.5h-51.5H271h-23.6l-14,46.9l-13.9-46.9h0h-23.3l21.5,61h32.4L271,82.9v58.6h54.9h2.5h29.9
	c8.8-1.5,13.3-6,13.4-13.5c0.2-7.5-4.3-15.3-13.4-23.3c-5.1-4.2-4-6.2,3.2-6h11.9h3h16.4v42.8h19.9V98.7H432V80.5h-55.6H373.4z"/>
	</g>
</svg>