<?xml version="1.0" encoding="UTF-8"?>
<svg id="uuid-aa34a8f6-cf16-4e92-bb04-fcfbc8a05943" xmlns="http://www.w3.org/2000/svg" viewBox="0 0 432 141.53223" fill="url(#lgrad) var(--orange1)">
	<defs>
		<linearGradient id="lgrad" x1="50%" y1="0%" x2="50%" y2="100%">
			<stop offset="0%" style="stop-color:rgb(251,179,62);stop-opacity:1.00" />
			<stop offset="100%" style="stop-color:rgb(185,117,7);stop-opacity:1.00" />
		</linearGradient>
	</defs>
	<g id="uuid-63640b1d-9d54-42bd-9fe1-9d69cd064248">
		<g>
			<g>
				<path d="M100.77478,61.01403V18.16886h-12.6763V0h54.29593c6.67597,.05681,11.753,1.21149,15.23236,3.46469,3.47873,2.25383,5.58416,6.02841,6.31692,11.32406,.2534,4.05639-.60606,7.2399-2.57745,9.54927-1.97202,2.31-5.22543,4.2115-9.76055,5.70416v.16915c2.22479,.28181,4.28139,.88053,6.16884,1.79553,1.88713,.91596,3.47139,2.00043,4.75373,3.25373,1.28138,1.25362,2.27426,2.66905,2.97894,4.24628,.70372,1.57787,1.05607,3.12703,1.05607,4.64809,0,4.81692-1.23256,8.46512-3.69703,10.94363-2.46511,2.47915-5.63426,4.09852-9.50714,4.85905-3.87352,.76053-8.57076,1.11255-14.0914,1.05638h-38.49293ZM121.81694,14.78875v9.25342h14.78875c.8167,0,1.67553-.42926,2.57745-1.28873,.90128-.85883,1.37968-2.00713,1.43649-3.44362-.11266-1.66181-.65489-2.83117-1.6267-3.50713s-1.78181-1.01394-2.42937-1.01394h-14.74662Zm0,22.60567v11.28161h13.56353c2.33777,.08457,4.37969-.42255,6.12671-1.52107,1.74607-1.09883,2.61958-2.45075,2.61958-4.05639,.16915-1.77479-.54255-3.16915-2.13383-4.18309-1.5916-1.01426-3.79628-1.52107-6.61246-1.52107h-13.56353Z" />
				<path d="M169.5636,61.01403V0h19.85907V42.84485h33.0425v18.16918h-52.90157Z" />
				<path d="M242.74648,0V36.08431c-.16915,4.1132,.61915,6.97182,2.36617,8.57746,1.74575,1.60564,4.47894,2.46543,8.19703,2.57745,2.98532-.05585,5.47852-.92936,7.47895-2.61958,1.99979-1.69022,2.9432-4.53511,2.83086-8.53533V0h19.85939V35.78878c-.08489,5.07033-.92298,9.12001-2.51426,12.14778-1.59192,3.02841-3.60639,5.55639-6.04214,7.58459-2.43702,2.02819-5.4932,3.60607-9.16916,4.73235s-7.7681,1.74639-12.27449,1.85905c-3.74681-.08457-7.55682-.59872-11.43002-1.54213s-7.25363-2.42968-10.14065-4.45788c-2.88766-2.02819-5.11277-4.63341-6.67597-7.81693-1.56319-3.18288-2.34511-7.33756-2.34511-12.4647V0h19.85939Z" />
				<path d="M286.43675,61.01403V0h52.30986V18.16886h-32.45111v7.01427h20.9579v10.64778h-20.9579v7.01395h37.60601v18.16918h-57.46477Z" />
			</g>
			<g>
				<path d="M48.50688,101.56068v-21.0428h19.85907v61.01435h-19.85907v-21.97152h-15.97183v21.97152H12.67598v-42.84517H0v-18.16918H32.53505v21.0428h15.97183Z" />
				<path d="M66.67574,141.53223l20.07067-61.01435h30.29558l20.40865,61.01435h-23.07035l-3.84511-10.98576h-18.12673l-3.84511,10.98576h-21.88759Zm35.28197-47.49326l-8.74661,24.16918h16.81694l-8.07033-24.16918Z" />
				<path d="M136.60552,141.53223v-61.01435h39.71814c4.9015,.45128,8.92948,1.74702,12.08459,3.88788,3.15447,2.14085,5.46448,5.01384,6.92969,8.61959,1.12628,5.40831,1.18309,9.57767,.16883,12.50683-1.01394,2.92979-2.78873,5.38086-5.32373,7.35193-2.53532,1.97234-6.16916,3.52149-10.90151,4.64809l4.5632,5.83086h18.25375v18.16918h-24.08461l-19.35226-20.15492v20.15492h-22.0561Zm22.0561-45.80305v11.2398h15.38045c.8167,0,1.70394-.30255,2.66203-.9083,.95713-.60575,1.46426-2.13383,1.52107-4.5849-.14138-2.33745-.7117-3.88022-1.71128-4.62639-1.00021-.74617-1.83798-1.12021-2.51394-1.12021h-15.33832Z" />
				<path d="M219.46469,80.51788l13.85906,46.85943,14.02853-46.85943h24.46472l-21.76088,61.01435h-32.40835l-21.46503-61.01435h23.28195Z" />
				<path d="M270.97189,141.53223v-61.01435h52.30986v18.16918h-32.45111v7.01427h20.9579v10.6481h-20.9579v7.01363h37.60601v18.16918h-57.46477Z" />
				<path d="M376.43673,98.68706h-14.87364c-7.23959-.22532-8.31001,1.77447-3.21128,6.00001,9.12703,8.00044,13.60598,15.77492,13.43683,23.32408s-4.64809,12.05683-13.43683,13.52108h-32.45047v-18.16918h12.84513c7.97108,.22596,8.98533-1.99979,3.04213-6.67597-9.80299-9.01406-13.97172-17.29534-12.50683-24.84514,1.46426-7.54852,6.08426-11.32406,13.85874-11.32406h33.29622v18.16918Z" />
				<path d="M432,80.51788v18.16918h-19.35194v42.84517h-19.85939v-42.84517h-19.35194v-18.16918h58.56328Z" />
			</g>
		</g>
	</g>
</svg>